<svg width="48" height="48" viewBox="0 0 48 48" fill="none" xmlns="http://www.w3.org/2000/svg">
<rect width="48" height="48" rx="5" fill="#53C351"/>
<path d="M34.4977 13.5V15.8333C34.4977 17.9993 33.6373 20.0765 32.1058 21.608C30.5742 23.1396 28.497 24 26.3311 24H25.1644V25.1666H30.9977V33.3333C30.9977 33.9522 30.7519 34.5456 30.3143 34.9832C29.8767 35.4208 29.2832 35.6666 28.6644 35.6666H19.3311C18.7122 35.6666 18.1187 35.4208 17.6811 34.9832C17.2436 34.5456 16.9977 33.9522 16.9977 33.3333V25.1666H22.8311V21.6666C22.8311 19.5007 23.6915 17.4235 25.223 15.8919C26.7546 14.3604 28.8318 13.5 30.9977 13.5H34.4977ZM16.4144 12.3333C17.8144 12.3322 19.1941 12.6674 20.4375 13.3108C21.6808 13.9542 22.7514 14.887 23.5591 16.0305C22.3269 17.6508 21.6612 19.6311 21.6644 21.6666V22.8333H21.0811C18.7604 22.8333 16.5348 21.9114 14.8939 20.2705C13.2529 18.6296 12.3311 16.404 12.3311 14.0833V12.3333H16.4144Z" fill="#1C3A27"/>
</svg>
