<svg width="48" height="48" viewBox="0 0 48 48" fill="none" xmlns="http://www.w3.org/2000/svg">
<rect width="48" height="48" rx="5" fill="#53C351"/>
<path d="M35.7414 11.0938L30.136 12.724L32.4055 11.1878C30.9727 11.5116 29.1625 12.1448 26.8875 13.167L23.1743 17.0383L24.4922 14.334C23.218 15.0427 21.8672 15.9719 20.5657 17.0602L19.7016 20.5766L19.5157 17.9734C18.2305 19.1547 17.0219 20.4672 16.0211 21.8508C14.9695 23.3 14.1475 24.8313 13.7357 26.357L12.1979 25.3289C12.3357 26.625 12.7618 27.7516 13.4607 28.7852L11.6221 28.2219C12.0399 29.507 12.7229 30.3383 13.8779 31.0109C13.231 32.832 12.9275 34.7352 12.6015 36.6328L13.6078 36.8023C14.7748 25.1703 23.0102 17.7547 30.4532 14.4691L30.8305 15.4195C24.175 18.4 19.0016 23.4313 16.2946 30.6828C17.2844 30.6883 18.2524 30.568 19.1493 30.3383L19.4172 27.0078L20.1336 30.043C20.7297 29.8242 21.2766 29.5617 21.7633 29.2555L20.6313 26.8766L22.425 28.7797C22.8625 28.4297 23.2235 28.0359 23.4969 27.6039C25.1594 25.0062 26.8985 22.425 30.3219 20.2648L27.8227 19.3789L31.6563 19.4938C32.2797 19.1766 32.936 18.7883 33.4336 18.4219L30.7157 18.2031L34.8008 17.2406C35.118 16.9234 35.4133 16.5898 35.6813 16.2562C36.6274 15.0564 37.2672 13.8073 37.1141 12.6715C37.043 12.1033 36.7039 11.569 36.1516 11.2698C36.0149 11.1987 35.8672 11.1359 35.7414 11.0938Z" fill="#1C3A27"/>
</svg>
