<svg width="220" height="32" viewBox="0 0 220 32" fill="none" xmlns="http://www.w3.org/2000/svg">
<path d="M220 30.8864H196.404V25.0725L205.94 17.3056L210.597 14.3078V13.8536L205.94 14.1261H197.069V8.13052H219.335V13.9898L209.045 22.1202L204.831 24.8V25.2542L209.045 24.9363H220V30.8864Z" fill="white"/>
<path d="M194.238 30.8859H188.786C183.642 30.8859 180.52 28.3877 180.52 22.6647V13.7622H177.046V8.12997H180.52V3.72413H187.115V8.12997H194.238V13.7622H187.115V21.8925C187.115 24.1636 187.951 24.754 190.281 24.754H194.238V30.8859Z" fill="white"/>
<path d="M159.144 31.3403C154.355 31.3403 151.473 29.0692 151.473 25.2539C151.473 21.8927 153.912 19.8034 158.656 19.3037L168.189 18.3045V17.4415C168.189 14.4891 166.903 13.6715 163.356 13.6715C159.986 13.6715 158.612 14.5799 158.612 17.1689V17.3506H151.916V17.2144C151.916 11.5822 156.528 7.67595 163.844 7.67595C171.248 7.67595 174.751 11.5822 174.751 17.5323V30.8861H168.544V25.6627H168.189C167.169 29.2055 164.065 31.3403 159.144 31.3403ZM158.168 24.7997C158.168 26.026 159.099 26.5257 161.05 26.5257C165.573 26.5257 168.012 25.4356 168.189 22.2107L160.474 23.1191C158.878 23.2553 158.168 23.7096 158.168 24.7997Z" fill="white"/>
<path d="M148.69 30.8862H123.504V0.454132H148.69V6.58596H130.167V12.5361H148.024V18.6225H130.167V24.7543H148.69V30.8862Z" fill="white"/>
<path d="M94.2054 30.8864H85.8281L79.6907 8.13052H86.6345L89.2776 18.5319L90.2184 25.6176H90.6663L92.4583 17.8506L95.863 8.13052H104.509L107.869 17.8506L109.661 25.6176H110.109L111.094 18.5319L113.693 8.13052H120.547L114.186 30.8864H105.808L101.956 19.94L100.298 13.6719H99.8052L98.1029 19.94L94.2054 30.8864Z" fill="#53C351"/>
<path d="M66.5864 31.3403C58.9892 31.3403 53.8799 26.7073 53.8799 19.5308C53.8799 12.2635 58.9892 7.67595 66.5864 7.67595C74.1837 7.67595 79.2929 12.2635 79.2929 19.5308C79.2929 26.7073 74.1837 31.3403 66.5864 31.3403ZM66.5864 25.2993C71.0737 25.2993 72.6731 23.5279 72.6731 19.5308C72.6731 15.5338 71.0737 13.6715 66.5864 13.6715C62.0547 13.6715 60.4997 15.5338 60.4997 19.5308C60.4997 23.5279 62.0547 25.2993 66.5864 25.2993Z" fill="#53C351"/>
<path d="M53.99 6.48898C53.9119 6.21248 53.5881 6.15761 53.4183 6.38534C52.6346 7.42443 51.4108 7.97171 50.1223 7.79565L48.4965 7.57348C46.3422 7.27911 44.3491 8.83556 44.0467 11.0483C44.0268 11.1945 44.0239 11.3366 44.0188 11.4805C45.4457 10.7036 47.4282 10.1494 50.0823 10.5121C50.2612 10.5366 50.387 10.7069 50.3619 10.8906C50.3368 11.0743 50.1699 11.2046 49.9911 11.1801C44.8818 10.482 42.2758 13.4028 41.6311 14.546C41.4504 14.8679 41.5559 15.2779 41.868 15.463C41.9806 15.816 42.5825 15.5372 42.7669 15.2179C42.8076 15.1469 43.3283 14.276 44.4866 13.5263C45.0198 14.5327 46.1522 15.5784 47.8208 15.6236C51.0441 15.8216 53.6914 13.1892 54.1832 9.5903C54.3264 8.54236 54.2552 7.42685 53.99 6.48898Z" fill="#C3EF3C"/>
<path d="M36.4237 30.8864H43.2369V17.7143L42.7372 14.1715V8.13052H36.4237V30.8864Z" fill="#53C351"/>
<path d="M15.0343 31.3405C5.72304 31.3405 0 25.1632 0 15.6702C0 6.17725 6.44978 0 16.8966 0C26.435 0 32.476 4.45125 32.476 11.764V12.1274H24.8907V11.764C24.8907 8.22119 22.5742 6.54062 16.7149 6.54062C9.81093 6.54062 7.22193 8.90251 7.22193 15.6702C7.22193 22.438 9.72009 24.7998 16.397 24.7998C23.3918 24.7998 25.5266 23.7097 25.7083 19.849H15.3977V14.8072H32.5214V30.8863H26.2079V24.3456H25.8445C24.7998 28.3427 21.6204 31.3405 15.0343 31.3405Z" fill="#53C351"/>
</svg>
