<svg width="16" height="16" viewBox="0 0 16 16" fill="none" xmlns="http://www.w3.org/2000/svg">
<path d="M8.00004 4.00016C8.36823 4.00016 8.66671 4.29864 8.66671 4.66683V9.3335C8.66671 9.70169 8.36823 10.0002 8.00004 10.0002C7.63185 10.0002 7.33337 9.70169 7.33337 9.3335V4.66683C7.33337 4.29864 7.63185 4.00016 8.00004 4.00016Z" fill="black"/>
<path d="M7.16671 11.1668C7.16671 11.6271 7.5398 12.0002 8.00004 12.0002C8.46028 12.0002 8.83337 11.6271 8.83337 11.1668C8.83337 10.7066 8.46028 10.3335 8.00004 10.3335C7.5398 10.3335 7.16671 10.7066 7.16671 11.1668Z" fill="black"/>
<path fill-rule="evenodd" clip-rule="evenodd" d="M1.33337 8.00016C1.33337 4.31826 4.31814 1.3335 8.00004 1.3335C11.6819 1.3335 14.6667 4.31826 14.6667 8.00016C14.6667 11.6821 11.6819 14.6668 8.00004 14.6668C4.31814 14.6668 1.33337 11.6821 1.33337 8.00016ZM8.00004 2.66683C5.05452 2.66683 2.66671 5.05464 2.66671 8.00016C2.66671 10.9457 5.05452 13.3335 8.00004 13.3335C10.9456 13.3335 13.3334 10.9457 13.3334 8.00016C13.3334 5.05464 10.9456 2.66683 8.00004 2.66683Z" fill="black"/>
</svg>
