<svg width="30" height="30" viewBox="0 0 30 30" fill="none" xmlns="http://www.w3.org/2000/svg">
<path d="M18.875 2.26245L15.3375 5.79995C14.375 6.77495 14.375 8.36245 15.3375 9.33745L17.1 11.1L11.4125 16.7875L7.88752 13.25L6.11252 15C-0.0749826 21.25 4.37502 25.625 4.37502 25.625C4.37502 25.625 8.75002 30 15 23.8625L16.7625 22.1L13.2625 18.6L18.9375 12.925L20.675 14.6625C21.65 15.625 23.2375 15.625 24.2125 14.6625L27.75 11.125L18.875 2.26245ZM22.4125 12.85L20.6875 11.125L18.8875 9.32495L17.1375 7.57495L18.9 5.81245L24.1875 11.1L22.4125 12.85Z" fill="#1C3A27"/>
</svg>
