<svg width="27" height="24" viewBox="0 0 27 24" fill="none" xmlns="http://www.w3.org/2000/svg">
<path d="M25.6006 0.539115C25.3381 -0.0425147 24.5881 -0.0657798 24.274 0.483278C22.8209 2.99126 20.2193 4.55468 17.2474 4.55468H13.4974C8.52869 4.55468 4.49744 8.55629 4.49744 13.4885C4.49744 13.8142 4.53494 14.126 4.56775 14.4424C7.55837 12.3159 11.8756 10.5106 17.9974 10.5106C18.4099 10.5106 18.7474 10.8456 18.7474 11.2551C18.7474 11.6645 18.4099 11.9995 17.9974 11.9995C6.21306 11.9995 1.21619 19.1699 0.109935 21.864C-0.19944 22.6224 0.166185 23.4879 0.930248 23.7996C1.699 24.116 2.57087 23.7484 2.88962 22.9947C2.95994 22.8271 3.86931 20.7659 6.25994 18.779C7.77869 20.8217 10.6662 22.7713 14.4584 22.3711C21.8177 21.8407 26.9974 15.2892 26.9974 7.2674C26.9974 4.93158 26.4912 2.512 25.6006 0.539115Z" fill="#1C3A27"/>
</svg>
