<svg width="48" height="48" viewBox="0 0 48 48" fill="none" xmlns="http://www.w3.org/2000/svg">
<rect width="48" height="48" rx="5" fill="#53C351"/>
<g clip-path="url(#clip0_198_761)">
<path d="M35.6031 12.4513C35.3406 11.8697 34.5906 11.8465 34.2766 12.3955C32.8234 14.9035 30.2219 16.4669 27.25 16.4669H23.5C18.5312 16.4669 14.5 20.4685 14.5 25.4007C14.5 25.7264 14.5375 26.0382 14.5703 26.3546C17.5609 24.2282 21.8781 22.4228 28 22.4228C28.4125 22.4228 28.75 22.7578 28.75 23.1673C28.75 23.5767 28.4125 23.9118 28 23.9118C16.2156 23.9118 11.2187 31.0821 10.1125 33.7762C9.80312 34.5346 10.1687 35.4001 10.9328 35.7119C11.7016 36.0283 12.5734 35.6607 12.8922 34.9069C12.9625 34.7394 13.8719 32.6781 16.2625 30.6912C17.7812 32.7339 20.6687 34.6835 24.4609 34.2834C31.8203 33.7529 37 27.2015 37 19.1796C37 16.8438 36.4938 14.4242 35.6031 12.4513Z" fill="#1C3A27"/>
</g>
<defs>
<clipPath id="clip0_198_761">
<rect width="27" height="23.8235" fill="white" transform="translate(10 12)"/>
</clipPath>
</defs>
</svg>
