<svg width="20" height="21" viewBox="0 0 20 21" fill="none" xmlns="http://www.w3.org/2000/svg">
<path d="M11.4417 3.3406L12.9084 6.27393C13.1084 6.68227 13.6417 7.07393 14.0917 7.14893L16.75 7.5906C18.45 7.87393 18.85 9.10727 17.625 10.3239L15.5584 12.3906C15.2084 12.7406 15.0167 13.4156 15.125 13.8989L15.7167 16.4573C16.1834 18.4823 15.1084 19.2656 13.3167 18.2073L10.825 16.7323C10.375 16.4656 9.63338 16.4656 9.17505 16.7323L6.68338 18.2073C4.90005 19.2656 3.81671 18.4739 4.28338 16.4573L4.87505 13.8989C4.98338 13.4156 4.79171 12.7406 4.44171 12.3906L2.37505 10.3239C1.15838 9.10727 1.55005 7.87393 3.25005 7.5906L5.90838 7.14893C6.35005 7.07393 6.88338 6.68227 7.08338 6.27393L8.55005 3.3406C9.35005 1.74893 10.65 1.74893 11.4417 3.3406Z" fill="#F4B741"/>
</svg>
